<?xml version="1.0" encoding="utf-8"?>
<!DOCTYPE svg PUBLIC "-//W3C//DTD SVG 1.0//EN" "http://www.w3.org/TR/2001/REC-SVG-20010904/DTD/svg10.dtd">
<svg version="1.0" xmlns="http://www.w3.org/2000/svg" width="225px" height="225px" viewBox="0 0 225 225" preserveAspectRatio="xMidYMid meet">
 <g fill="#fffffe">
  <path d="M0 172 c0 -51.45 0.05 -53 0.95 -53 0.80 0 0.95 0.55 1.25 3.65 2.50 25.25 13.85 49.25 32.10 67.60 5.65 5.70 10.80 9.90 17.85 14.60 13.85 9.25 33.25 16.40 47.20 17.45 2.40 0.20 4.55 0.60 4.75 0.90 1.25 1.80 1.85 1.80 -51.85 1.80 l-52.25 0 0 -53z"/>
  <path d="M120.50 224.55 c0 -1.55 0.70 -2.05 2.95 -2.05 3.10 0 10.65 -1.30 16.45 -2.80 36.70 -9.65 66.05 -37.55 78.10 -74.20 1.25 -3.80 1.90 -6.15 3.55 -13.40 0.25 -1.20 0.60 -4.30 0.80 -6.90 0.30 -4.50 0.35 -4.70 1.50 -4.70 l1.15 0 0 52.25 0 52.25 -52.25 0 c-31.40 0 -52.25 -0.20 -52.25 -0.45z"/>
  <path d="M107 220.65 c-0.95 -0.05 -4.30 -0.40 -7.45 -0.70 -3.15 -0.30 -7.20 -0.85 -9 -1.25 -1.80 -0.35 -3.45 -0.70 -3.65 -0.70 -0.25 0 -0.40 -0.80 -0.40 -1.85 0 -1.70 -0.05 -1.75 -0.90 -1 -0.65 0.60 -1.85 0.85 -4.05 0.85 -2.60 0 -3.30 -0.20 -4.30 -1.25 -1.05 -1 -1.25 -1.70 -1.25 -4.15 0 -4.30 2.25 -11.05 4.25 -12.70 1.50 -1.30 6.70 -1.25 8.40 0.10 0.70 0.55 1.80 1 2.45 1 0.60 0 2.75 0.35 4.65 0.75 7.05 1.60 10.90 1.85 21.10 1.55 6.70 -0.25 10.45 -0.15 11.10 0.20 0.80 0.40 1 0.30 1.15 -0.60 0.20 -1.30 2.60 -2.10 5.50 -1.80 1.25 0.10 1.90 -0.05 1.90 -0.40 0 -0.70 2.60 -1.70 4.50 -1.70 1.30 0 1.50 0.30 3.20 5.25 1 2.90 1.80 5.40 1.80 5.60 0 0.25 1 0.35 2.20 0.25 2.05 -0.20 2.20 -0.10 2.75 1.45 0.30 0.85 0.55 2.20 0.55 3 0 1.20 -0.30 1.45 -3.10 2.45 -4.80 1.65 -8.25 2.50 -10.20 2.50 -0.95 0 -2.25 0.30 -2.85 0.70 -1.55 0.95 -7.30 1.75 -16.60 2.30 -8.05 0.45 -8.55 0.50 -11.75 0.15z"/>
  <path d="M151.35 204.35 c-3.85 -7.65 -4.30 -10.25 -2.10 -11.25 0.70 -0.35 1.95 -0.60 2.75 -0.60 1 0 1.50 -0.25 1.50 -0.75 0 -0.95 1.55 -1.75 3.45 -1.75 1.15 0 1.50 -0.25 1.65 -1.10 0.25 -1.65 3.15 -3.40 5.65 -3.40 2.10 0 2.15 -0.05 2.45 -2 0.25 -1.55 0.70 -2.25 1.95 -3 0.85 -0.55 2.10 -1 2.75 -1 0.75 0 1.10 -0.30 1.10 -0.95 0 -1.20 4.65 -5.55 6 -5.55 0.80 0 1 -0.30 1 -1.45 0 -0.85 0.25 -1.65 0.50 -1.80 0.30 -0.20 2 -2.35 3.80 -4.80 1.80 -2.45 3.60 -4.45 4 -4.45 0.40 0 0.70 -0.50 0.70 -1.30 0 -1.75 1.50 -4.20 2.60 -4.20 0.70 0 0.90 -0.40 0.90 -1.75 0 -4.80 2.05 -5.35 8.75 -2.25 2.40 1.10 4.45 2 4.55 2 0.15 0 0.45 -0.55 0.70 -1.25 0.55 -1.50 2.70 -1.70 5 -0.50 1.90 1 2 3.05 0.25 6.65 -0.70 1.45 -1.25 2.80 -1.25 3.10 0 0.25 -0.35 0.50 -0.75 0.50 -0.50 0 -0.75 0.50 -0.75 1.40 -0.05 1.75 -1.10 3.10 -2.45 3.10 -0.90 0 -1.05 0.30 -1.05 2.15 -0.05 2.55 -0.90 3.85 -2.70 3.85 -1.15 0 -1.30 0.20 -1.30 1.80 0 2.75 -0.75 3.70 -2.90 3.70 l-1.90 0 0.20 2 c0.25 2.70 -0.85 4 -3.45 4 -1.45 0 -2.35 -0.40 -3.70 -1.55 -1 -0.90 -1.85 -1.50 -1.95 -1.40 -0.10 0.10 -0.30 0.90 -0.45 1.75 -0.25 1.25 -0.05 1.80 0.95 2.70 2.50 2.40 1.05 7 -2.20 7 -1.20 0 -1.50 0.25 -1.90 1.85 -0.65 2.65 -3.15 4.30 -6.35 4.05 l-2.35 -0.15 0 1.80 c0 3.05 -2.55 4.95 -6.80 4.95 -2.10 0 -2.20 0.05 -2.20 1.40 0 1.55 -1.50 2.60 -3.75 2.60 -0.70 0 -1.25 0.25 -1.25 0.55 0 1.10 -1.75 1.90 -4.05 1.95 l-2.25 0 -3.35 -6.65z"/>
  <path d="M62.65 209.25 c-0.55 -0.40 -1.15 -1.25 -1.35 -1.90 -0.25 -1 -0.50 -1.10 -2 -0.95 -1.90 0.20 -4.80 -1.40 -4.80 -2.70 0 -0.45 -0.50 -0.70 -1.35 -0.70 -2 -0.05 -3.15 -1.10 -3.15 -2.95 0 -1.50 -0.10 -1.55 -2 -1.55 -3.95 0 -6.50 -2.45 -6.50 -6.25 0 -1.75 0 -1.75 -2.25 -1.75 -2.05 0 -2.60 -0.25 -4.75 -2.30 -3.90 -3.65 -3.75 -4.35 3.15 -11.10 6.80 -6.80 7.45 -6.95 11.05 -3.10 1.85 1.95 2.30 2.80 2.30 4.25 0 1.75 0.05 1.75 2.15 1.75 2.80 0 5.30 1.55 5.70 3.50 0.20 1.25 0.50 1.50 1.65 1.50 1.55 0 4 1.70 4 2.80 0 0.45 0.50 0.70 1.40 0.70 1.65 0.05 3.10 1.05 3.10 2.20 0 0.60 0.50 0.80 2.15 0.80 1.95 0 4.10 0.95 4.95 2.20 1 1.40 0.20 8.30 -0.90 8.30 -0.45 0 -0.70 0.55 -0.70 1.40 0 0.90 -0.75 2.25 -2.30 4 l-2.30 2.60 -3.10 0 c-1.90 0 -3.50 -0.30 -4.15 -0.75z"/>
  <path d="M102.25 196.65 c-20.40 -2.40 -36.55 -10.40 -50.80 -25 -12.75 -13.05 -20.80 -29.70 -22.90 -47.40 -0.70 -5.80 -0.70 -17.70 0 -23.50 0.85 -7.35 3.70 -17.45 6.60 -23.65 0.55 -1.15 0.90 -2.20 0.80 -2.30 -0.55 -0.45 -3.45 -0.70 -3.45 -0.30 0 0.30 -0.45 0.50 -1 0.50 -0.80 0 -1 0.35 -1 1.65 0 1.75 -1.30 6.15 -2.15 7.25 -0.85 1.10 -3 0.65 -10.50 -2.25 l-7.45 -2.90 0.25 -2.50 c0.30 -3.70 2.10 -7.15 4.05 -7.70 0.85 -0.25 1.25 -0.50 0.95 -0.50 -0.35 -0.05 -0.65 -0.40 -0.65 -0.80 0 -0.40 -0.45 -1.20 -1 -1.75 l-1.05 -1.05 -1.75 3.90 c-4.80 10.50 -9.20 28.20 -9.20 36.90 0 1.90 -0.15 2.25 -1 2.25 -1 0 -1 -0.35 -1 -53.75 l0 -53.75 53.50 0 c51.35 0 53.50 0.05 53.50 0.90 0 0.80 -0.75 1 -5.70 1.50 -13.15 1.40 -25.95 5.15 -37.85 11.15 l-4.05 2 1 1 c1.25 1.10 1.60 1.20 1.60 0.30 0 -0.70 3 -2.35 4.25 -2.35 0.40 0 1.20 -0.45 1.75 -1 0.70 -0.70 1.65 -1 3.15 -1 l2.15 0 3.35 7.15 c3.95 8.35 4.15 9.80 1.60 11 -1 0.45 -2.20 0.85 -2.70 0.85 -0.50 0 -1.05 0.30 -1.20 0.70 -0.15 0.40 -1.05 0.85 -1.95 1.05 -2.05 0.45 -2.25 0.75 -2 3.15 l0.20 2 3.80 -1.90 c8.45 -4.10 17.60 -6.90 26.35 -7.95 10.30 -1.25 24.50 -0.40 33.95 2 7.90 2 18.60 6.75 24.95 11.05 17.10 11.55 29.30 28.45 34.60 47.90 3.60 13.25 3.70 31.50 0.20 45.10 -1.85 7.40 -6.05 17.40 -9.80 23.25 -4.85 7.65 -13.90 17.40 -21.40 23 -11.30 8.45 -25.05 13.95 -39.25 15.65 -3.90 0.45 -18.30 0.60 -21.75 0.15z m34.25 -34.40 l0 -16.25 -1.35 0.35 c-0.80 0.25 -3.75 0.40 -6.65 0.40 -6.20 -0.05 -9.05 -0.85 -13.50 -3.85 l-3 -2 -1.65 1.40 c-4.05 3.45 -11.15 5.20 -17.80 4.40 l-4.05 -0.45 0 16.10 0 16.15 24 0 24 0 0 -16.25z m-60 -25 c0 -0.10 -0.45 -1.05 -1 -2.10 -1.95 -3.80 -3.25 -11.30 -2 -11.75 0.25 -0.05 -0.35 -2.40 -1.40 -5.15 -1.05 -2.75 -2.65 -7 -3.55 -9.50 -3.40 -9.40 -7 -15.25 -12.35 -20.25 -2.70 -2.50 -2.95 -2.65 -3.10 -1.60 -0.15 0.95 -0.45 1.10 -2.40 1.10 l-2.20 0 0 24.50 0 24.45 4.40 0.15 c8.25 0.30 23.60 0.35 23.60 0.15z m100 -24.75 l0 -24.50 -2.50 0 c-2.15 0 -2.50 -0.15 -2.50 -1 0 -1.35 -0.20 -1.30 -2.60 0.65 -5.25 4.20 -9.65 11.65 -13.85 23.35 -1.40 4 -3.05 8.35 -3.60 9.75 -0.60 1.55 -0.80 2.55 -0.45 2.65 1.10 0.40 -0.10 7.35 -2 11.20 -0.55 1.15 -1 2.15 -1 2.25 0 0.10 6.40 0.15 14.25 0.15 l14.25 0 0 -24.50z m-35.15 -13.35 c-0.10 -1.05 -0.20 -0.30 -0.20 1.60 0 1.95 0.10 2.75 0.20 1.90 0.10 -0.90 0.10 -2.50 0 -3.50z m2.15 -11.15 c0.60 -0.40 0.55 -0.50 -0.35 -0.50 -0.65 0 -1.15 0.25 -1.15 0.50 0 0.65 0.55 0.65 1.50 0z m-42 -7.05 c0 -0.65 0.65 -2.15 4.15 -9.45 1.35 -2.90 3.05 -6.10 3.70 -7.15 1.10 -1.70 1.40 -1.90 3 -1.75 1.80 0.15 1.90 0.30 5 6.15 1.70 3.30 3.75 7.55 4.50 9.50 l1.30 3.45 1.05 -1.45 c2.45 -3.40 5.95 -6.60 9 -8.25 l3.30 -1.75 0 -11.85 0 -11.90 -24 0 -24 0 0 12 0 12 2.40 1.20 c3.20 1.65 6.25 4.35 8.15 7.30 1.55 2.40 2.45 3.10 2.45 1.95z m-57.35 -19.20 c5.35 -7.15 13.65 -15.10 20.85 -19.90 2.40 -1.65 2.60 -1.85 1.45 -1.85 -0.90 0 -1.40 -0.30 -1.60 -1 -0.25 -1.05 -2.35 -1.45 -2.35 -0.40 0 1.25 -1.70 2.40 -3.60 2.40 -1.70 0 -1.90 0.15 -1.90 1.25 0 1.75 -2.30 3.70 -4.40 3.75 -1.30 0 -2.65 -0.80 -6.75 -4.05 -2.80 -2.25 -5.60 -4.40 -6.20 -4.85 -2.55 -1.65 -0.70 -6.60 2.45 -6.60 1.15 0 1.40 -0.20 1.40 -1.15 0 -1.25 2.35 -3.35 3.75 -3.35 0.40 0 0.75 -0.25 0.75 -0.55 0 -1 1.65 -1.90 3.40 -1.95 1.55 0 1.60 -0.05 1.60 -2.05 l0 -2.05 -3.35 2.40 c-7.65 5.40 -16.85 13.95 -22.65 21 -2.75 3.30 -10 13.80 -10 14.40 0 0.15 0.70 0.30 1.50 0.30 1.30 0 1.50 -0.20 1.50 -1.35 0.05 -1.60 1.55 -3.65 2.70 -3.65 0.55 0 0.80 -0.45 0.80 -1.35 0.05 -1.80 1.10 -3.15 2.45 -3.15 0.85 0 1.05 -0.30 1.05 -1.60 0 -1.90 1.25 -3.40 2.85 -3.40 0.90 0 1.15 -0.25 1.15 -1.35 0 -1.80 1.80 -3.65 3.60 -3.65 1.10 0 2.85 1.20 7.40 5.10 5.55 4.80 6 5.25 6 6.90 -0.05 2.05 -1.45 4 -2.95 4 -0.80 0 -1.05 0.30 -1.05 1.35 0 1.45 -1.25 3.15 -2.35 3.15 -0.35 0 -0.65 0.35 -0.65 0.75 0 1.15 -1.50 3.25 -2.30 3.25 -0.40 0 -0.70 0.50 -0.70 1.25 0 0.70 -0.55 1.85 -1.30 2.55 -1.20 1.25 -1.20 1.35 -0.35 2 0.50 0.35 1.05 0.70 1.30 0.70 0.20 0 0.35 0.50 0.35 1.15 0 0.80 0.45 0.35 1.55 -1.65 0.90 -1.50 2.95 -4.55 4.60 -6.75z m32.85 7.50 c0 -0.40 -0.35 -0.75 -0.80 -0.75 -0.70 0 -0.70 0.15 -0.20 0.75 0.35 0.40 0.70 0.75 0.80 0.75 0.10 0 0.20 -0.35 0.20 -0.75z m71.50 0 c0.50 -0.60 0.50 -0.75 -0.20 -0.75 -0.45 0 -0.80 0.35 -0.80 0.75 0 0.40 0.10 0.75 0.20 0.75 0.10 0 0.45 -0.35 0.80 -0.75z"/>
  <path d="M26.30 178.90 c-0.45 -0.60 -0.80 -1.85 -0.80 -2.75 0 -1.40 -0.15 -1.65 -1.20 -1.65 -1.55 0 -2.80 -1.70 -2.80 -3.85 0 -1.25 -0.25 -1.60 -1.10 -1.75 -0.60 -0.10 -1.65 -0.95 -2.30 -1.90 -1 -1.50 -1.15 -2.20 -1 -4.85 0.15 -2.30 0.05 -3.15 -0.45 -3.15 -1.30 0 -3.25 -1.25 -3.95 -2.55 -0.40 -0.80 -0.70 -2.70 -0.70 -4.25 0 -2.60 0.15 -3 1.70 -4.45 2.60 -2.40 8.25 -4.35 12.25 -4.15 2.80 0.15 3.30 0.30 4.20 1.50 0.55 0.75 1.10 2.45 1.25 3.85 0.10 1.40 0.50 2.55 0.80 2.55 0.70 0 2.30 2.80 2.30 4.05 0 0.50 0.30 0.95 0.65 0.95 0.85 0 1.85 2.35 1.85 4.35 0 1.40 0.15 1.65 1.20 1.65 1.60 0 3.30 2.35 3.30 4.50 0 1.35 -0.85 2.50 -5.30 7.30 -5 5.35 -5.45 5.70 -7.25 5.70 -1.40 0 -2.10 -0.30 -2.65 -1.10z m-3.20 -26.15 c-0.10 -0.70 -0.45 -1.25 -0.70 -1.25 -0.25 0 -0.35 0.15 -0.25 0.40 0.10 0.20 0.35 0.75 0.50 1.25 0.45 1.25 0.75 1.05 0.45 -0.40z"/>
  <path d="M12.35 120.15 c-0.20 -0.15 -0.35 -0.95 -0.35 -1.70 0 -1.20 -0.20 -1.40 -1.60 -1.55 l-1.65 -0.15 0 -3.25 0 -3.25 1.65 -0.15 c1.45 -0.15 1.60 -0.30 1.60 -1.90 l0 -1.75 3.15 0.15 3.10 0.15 0.15 1.90 c0.15 1.75 0.25 1.85 1.90 1.85 l1.70 0 0 3 0 3 -1.75 0 c-1.70 0 -1.75 0.05 -1.75 2 l0 2 -2.90 0 c-1.60 0 -3.10 -0.15 -3.25 -0.35z"/>
  <path d="M207.65 120.15 c-0.95 -0.20 -1.15 -0.55 -1.15 -1.95 0 -1.60 -0.10 -1.70 -1.75 -1.70 l-1.75 0 0 -3 0 -3 1.75 0 c1.65 0 1.75 -0.10 1.75 -1.70 0 -2 0.55 -2.30 4.05 -2.30 l2.45 0 0 1.70 c0 1.60 0.15 1.75 1.65 1.90 1.60 0.15 1.60 0.15 1.75 3.30 l0.15 3.10 -1.80 0 c-1.70 0 -1.75 0.05 -1.75 2 l0 2 -2.10 -0.05 c-1.20 -0.05 -2.65 -0.20 -3.25 -0.30z"/>
  <path d="M223.20 104.10 c-0.30 -0.20 -0.70 -2.15 -0.85 -4.35 -0.75 -10.05 -4.80 -23.65 -10.35 -35 -3.70 -7.50 -4.90 -9.40 -5.30 -8.35 -0.15 0.30 -0.70 0.60 -1.25 0.60 -0.70 0 -0.95 0.35 -0.95 1.25 0 1.05 0.25 1.25 1.50 1.25 1.15 0 1.65 0.35 2.25 1.50 0.40 0.80 0.75 1.80 0.75 2.20 0 0.40 0.55 1.35 1.25 2.10 1.30 1.40 1.70 4.05 0.70 5.05 -0.35 0.35 -0.10 0.70 1 1.05 1.95 0.70 3.05 2.90 3.05 6.10 0 2.20 -0.25 2.80 -1.45 4.05 -1 0.95 -2 1.45 -3 1.45 -0.85 0 -1.55 0.20 -1.55 0.45 0 0.85 -3.15 1.55 -7.10 1.55 -3.50 0 -4.10 -0.15 -5.15 -1.25 -1 -0.95 -1.25 -1.70 -1.25 -3.75 0 -1.85 -0.20 -2.50 -0.75 -2.50 -0.90 0 -2.25 -2.50 -2.25 -4.25 0 -0.70 -0.30 -1.25 -0.65 -1.25 -0.80 0 -1.85 -2.05 -1.85 -3.65 -0.05 -0.70 -0.65 -1.50 -1.65 -2.10 -2.05 -1.30 -2.85 -2.95 -2.85 -5.85 0 -2.30 -0.05 -2.40 -1.45 -2.40 -2.20 0 -6.05 -4.45 -6 -6.95 0 -1.50 0.35 -2.10 2.20 -3.55 1.20 -0.95 2.20 -2.10 2.20 -2.55 0.05 -1.05 1.65 -2.45 2.85 -2.45 0.55 0 1.75 -0.65 2.70 -1.50 1.25 -1 2.30 -1.45 3.55 -1.50 1.65 0 2.05 0.30 3.90 2.65 1.80 2.35 2.05 3 2.05 5.25 0 2.85 0 2.85 3.60 2.20 l1.90 -0.35 -2.50 -3.30 c-3.75 -5 -9.50 -11.25 -14.65 -15.80 -2.50 -2.25 -4.60 -4.05 -4.65 -4 -0.05 0.05 -0.20 0.85 -0.35 1.75 -0.30 1.35 -0.20 1.60 0.70 1.60 0.55 0 1.65 0.50 2.45 1.10 2.45 1.80 2.10 3.60 -2.45 11.40 -3.60 6.20 -4.05 6.75 -5.45 6.90 -2.10 0.20 -4.05 -1.25 -4.10 -3 0 -1.15 -0.20 -1.40 -1.25 -1.40 -1.45 0 -4.25 -1.85 -4.25 -2.85 0 -0.35 -0.45 -0.65 -1 -0.65 -2.50 0 -5.50 -2.85 -5.50 -5.25 0 -0.60 -0.65 -0.75 -3.05 -0.75 -2.70 0 -3.20 -0.15 -4.50 -1.45 -1.25 -1.30 -1.45 -1.85 -1.45 -4.35 0 -2.30 0.35 -3.60 1.80 -6.55 1 -2.05 2.50 -4.40 3.25 -5.25 1.40 -1.45 1.60 -1.50 4.95 -1.30 3.90 0.20 6 1.55 6 3.85 0 1.25 0.15 1.30 2.75 1.30 4 0 3.60 -1 -1.65 -4.05 -14.50 -8.55 -30.05 -13.60 -46.20 -15 -3.35 -0.25 -3.90 -0.45 -3.90 -1.25 0 -0.90 1.45 -0.95 53.50 -0.95 l53.50 0 0 52.25 c0 53.70 0 53.10 -1.80 51.85z"/>
  <path d="M143.60 29.50 c-0.60 -0.25 -1.25 -0.80 -1.40 -1.25 -0.20 -0.50 -1 -0.75 -2.65 -0.75 -1.30 0 -2.80 -0.35 -3.35 -0.75 -0.55 -0.40 -2.10 -0.70 -3.75 -0.75 -1.80 0 -3.05 -0.25 -3.40 -0.70 -0.80 -0.95 -3.65 -1.25 -13.90 -1.60 l-8.65 -0.30 0 -9.40 0 -9.35 4.90 -0.35 c2.65 -0.20 7.10 -0.10 9.85 0.20 8.30 0.85 8.75 0.95 8.75 2.05 0 0.85 0.15 0.90 1.05 0.40 0.65 -0.30 2.50 -0.45 4.50 -0.35 4.35 0.25 5.35 1.05 5.55 4.60 l0.15 2.55 1.20 -2.10 c1.35 -2.40 2.45 -2.65 6.10 -1.55 1.85 0.55 1.95 0.65 1.95 2.65 0 1.20 -0.45 5.50 -1 9.55 -0.55 4.10 -1 7.50 -1 7.60 0 0.30 -3.90 0 -4.90 -0.40z"/>
  <path d="M81.75 25.40 c-0.40 -1.40 -0.75 -2.90 -0.75 -3.25 0 -0.35 -0.35 -0.65 -0.75 -0.65 -1.20 0 -1.60 -1.80 -1.65 -7.30 l-0.05 -5.05 2.60 -0.60 c1.45 -0.35 3.95 -0.55 5.60 -0.45 2.90 0.15 3 0.20 4.10 2.15 l1.15 2 0 -3.05 c0 -3.50 0.20 -3.70 4.75 -3.70 l2.55 0 0.95 2.90 c0.55 1.55 1.70 4.75 2.60 7.10 0.95 2.40 1.65 5.15 1.65 6.35 l0 2.15 -3.25 0 c-1.85 0 -3.25 0.20 -3.25 0.50 0 0.30 -1.20 0.50 -2.70 0.50 -1.50 0 -2.85 0.20 -3 0.45 -0.45 0.70 -6.50 2.55 -8.25 2.55 -1.40 0 -1.60 -0.20 -2.30 -2.60z"/>
 </g>
 <g fill="#0065af">
  <path d="M103 224.55 c-0.40 -0.20 -2.75 -0.55 -5.15 -0.75 -17.50 -1.25 -40.55 -11.20 -56.65 -24.35 -20.55 -16.80 -35.25 -41.95 -39.40 -67.45 -2.60 -16.05 -2.30 -28.30 1 -44.45 3 -14.65 12.35 -33.65 22.65 -46.25 3.70 -4.45 12.75 -13.40 17.05 -16.80 13.30 -10.60 30.95 -18.90 46.70 -22 12.65 -2.50 23.60 -3.05 34.90 -1.75 11.75 1.35 18.45 2.95 28.15 6.60 39.15 14.85 66.80 50.10 71.80 91.45 0.75 6.20 1.10 21.70 0.50 22.95 -0.25 0.55 -0.60 3 -0.75 5.45 -0.20 2.40 -0.55 5.35 -0.80 6.50 -1.55 6.95 -2.25 9.50 -3.50 13.30 -2.20 6.75 -4.35 11.85 -7.30 17.45 -17.45 33.15 -49.25 55.10 -86.10 59.65 -5.65 0.65 -22.15 1 -23.10 0.45z m14.40 -5.85 c0.40 -0.10 0.60 -0.75 0.50 -1.55 -0.15 -1.30 -0.30 -1.40 -2.25 -1.25 l-2.15 0.15 0 -1.75 c0 -1.75 0.05 -1.80 2 -1.80 1.95 0 2 -0.05 2 -1.75 0 -1.75 0 -1.75 -2.30 -1.75 -2.20 0 -2.25 -0.05 -2.10 -1.35 0.10 -0.90 0.40 -1.35 0.85 -1.25 0.40 0.10 1.35 0 2.10 -0.15 1.20 -0.25 1.45 -0.60 1.45 -1.80 l0 -1.45 -4.10 0 -4.05 0 0.30 5.65 c0.20 3.05 0.35 6.75 0.35 8.20 l0 2.60 3.40 -0.25 c1.85 -0.15 3.65 -0.40 4 -0.50z m-10.05 -1.95 c0.10 -1.10 0.40 -4.20 0.65 -6.90 0.70 -7 0.75 -6.85 -0.95 -6.85 -1.25 0 -1.45 0.20 -1.75 1.90 -0.15 1 -0.30 2.85 -0.30 4.05 0 3.20 -0.45 2.25 -1.15 -2.25 l-0.60 -3.95 -1.85 -0.15 c-1.05 -0.10 -1.90 0 -1.90 0.25 0 0.20 -0.35 3.65 -0.70 7.65 -0.40 3.95 -0.60 7.40 -0.50 7.60 0.15 0.25 0.80 0.40 1.45 0.40 1.35 0 1.65 -1 1.90 -6.25 l0.10 -3 0.95 4.90 0.95 4.90 1.75 -0.15 c1.70 -0.15 1.80 -0.25 1.95 -2.15z m15.05 1.90 c1.10 -0.25 1.15 -0.50 1 -3.35 -0.10 -2.45 0 -3.05 0.60 -3.05 0.75 0 1.30 1.25 1.75 4.35 0.30 1.80 0.30 1.85 2.15 1.55 1 -0.15 1.90 -0.30 1.95 -0.35 0.30 -0.20 -1.60 -6.20 -2.15 -6.85 -0.60 -0.65 -0.60 -1 0.05 -2.25 0.90 -1.90 0.20 -4.90 -1.35 -5.75 -0.95 -0.50 -7.10 -0.40 -7.65 0.15 -0.45 0.40 1.50 15.90 2 15.90 0.25 0 1.05 -0.15 1.65 -0.35z m-26.70 -1.45 c0.75 -1.90 0.35 -2.60 -1.70 -2.95 -2.05 -0.35 -2.45 -1.05 -1.70 -2.95 0.25 -0.65 0.70 -0.75 2.05 -0.50 1.25 0.25 1.90 0.15 2.20 -0.35 0.90 -1.45 0.45 -2.35 -1.40 -2.80 -1.65 -0.40 -1.90 -0.60 -1.75 -1.65 0.25 -1.70 0.30 -1.70 2.55 -1.15 2.10 0.55 2.55 0.25 2.55 -1.85 0 -0.70 -0.50 -1.05 -1.85 -1.25 -1.05 -0.20 -2.70 -0.55 -3.65 -0.80 -1.15 -0.30 -1.80 -0.25 -2.05 0.10 -0.50 0.80 -3.15 14.90 -2.85 15.20 0.15 0.15 3.65 1 6.95 1.70 0.20 0 0.50 -0.30 0.65 -0.75z m37.80 -0.20 c0.40 -0.25 0.75 -1.10 0.75 -1.85 0 -1.15 0.25 -1.45 1.30 -1.55 1.10 -0.15 1.40 0.10 1.65 1.20 0.30 1.15 0.50 1.30 1.90 1 0.85 -0.15 1.65 -0.40 1.75 -0.45 0.10 -0.10 -1.25 -3.45 -3 -7.40 l-3.15 -7.20 -1.70 0.15 c-0.95 0.05 -1.95 0.35 -2.15 0.55 -0.25 0.25 -0.30 3.90 -0.10 8.25 0.30 6.75 0.50 7.80 1.20 7.80 0.45 0 1.15 -0.25 1.55 -0.50z m13.60 -3.60 c2.80 -0.95 2.80 -0.95 2.30 -2.45 -0.35 -1 -0.75 -1.40 -1.25 -1.25 -2.05 0.80 -3.15 0.85 -3.35 0.25 -0.15 -0.40 -1.10 -3.10 -2.10 -6.05 l-1.80 -5.30 -1.45 0.50 c-0.80 0.25 -1.45 0.70 -1.45 0.95 0 0.25 1.05 3.75 2.35 7.75 1.90 5.80 2.50 7.15 3.15 6.90 0.40 -0.15 2.05 -0.75 3.60 -1.30z m-62.50 -0.25 c1.45 -1.55 2.90 -4.25 2.90 -5.30 0 -0.40 -0.55 -0.90 -1.20 -1.05 -0.65 -0.15 -1.55 -0.45 -2 -0.60 -1 -0.40 -1.95 1.75 -1.15 2.70 0.65 0.80 -0.40 3.25 -1.30 3 -1.05 -0.35 -0.90 -2 0.55 -6.15 0.95 -2.85 1.60 -4.05 2.25 -4.15 0.80 -0.15 0.90 0.10 0.75 1.45 -0.15 1.40 0.05 1.70 1.25 2.10 1.70 0.55 1.80 0.45 2.20 -1.80 0.25 -1.55 0.05 -2 -1.25 -3.35 -2.50 -2.50 -5.95 -1.80 -7.50 1.50 -1.05 2.35 -2.60 7.65 -2.60 9.10 0 3.55 4.60 5.20 7.10 2.55z m74 -4.35 c0.80 -0.60 0.75 -0.85 -0.60 -3.40 -1.30 -2.40 -1.40 -2.90 -0.75 -3.40 1.10 -0.90 1.85 -0.35 3.20 2.30 0.70 1.35 1.30 2.50 1.35 2.60 0.15 0.30 2.70 -1.10 2.70 -1.50 0 -0.90 -6.80 -13.90 -7.25 -13.90 -0.30 0 -1 0.30 -1.50 0.70 -0.95 0.70 -0.95 0.75 0.25 3.30 1 2.20 1.10 2.65 0.50 3.05 -1.35 0.80 -1.80 0.50 -3 -2.05 -0.65 -1.35 -1.25 -2.50 -1.30 -2.50 -0.65 0 -2.70 1.25 -2.70 1.65 0 0.30 1.50 3.55 3.35 7.20 3.40 6.75 3.95 7.35 5.75 5.95z m-87.90 -2.90 c1.25 -1.45 2.30 -2.90 2.30 -3.15 0 -0.45 -3 -2.25 -3.75 -2.25 -0.10 0 -0.45 0.50 -0.80 1.05 -0.40 0.85 -0.40 1.15 0.10 1.45 0.50 0.35 0.45 0.70 -0.25 1.70 -0.95 1.45 -1.70 1.65 -2.10 0.55 -0.45 -1.15 3.55 -9.25 4.60 -9.25 0.60 0 0.75 0.35 0.60 1.55 -0.20 1.25 0 1.65 1.15 2.25 1.85 0.95 1.80 0.95 2.20 -1.30 0.45 -2.55 0.05 -3.60 -1.70 -4.65 -3.50 -2.05 -5.80 -0.60 -8.75 5.65 -2.60 5.55 -1.65 9 2.45 9 1.40 0 2.05 -0.45 3.95 -2.60z m-9.90 -4 c1.05 -1.75 3 -4.80 4.35 -6.80 2.30 -3.50 2.40 -3.70 1.50 -4.35 -1.55 -1.20 -2.05 -0.85 -4.20 3 -1.10 2.05 -2.10 3.75 -2.20 3.75 -0.10 0 0.50 -2.05 1.25 -4.50 l1.40 -4.50 -1.25 -1 c-0.70 -0.55 -1.40 -1 -1.60 -1 -0.40 0.05 -8.15 12 -8.40 13 -0.10 0.40 0.30 1.05 0.90 1.45 1 0.60 1.20 0.55 2 -0.50 0.50 -0.65 1.55 -2.35 2.30 -3.80 0.75 -1.40 1.45 -2.55 1.50 -2.45 0.05 0.05 -0.45 2 -1.15 4.30 l-1.30 4.20 1.40 1.15 c0.80 0.65 1.50 1.15 1.55 1.15 0.05 0 0.90 -1.40 1.95 -3.10z m109.35 0.65 c1.95 -0.75 3.35 -2.55 3.35 -4.30 0 -1.80 -2.95 -7.05 -5.40 -9.55 -2 -2.05 -3.70 -2.20 -6.15 -0.55 -2.45 1.60 -2.55 3.95 -0.40 7.70 1.90 3.30 5.45 7.15 6.60 7.15 0.40 0 1.35 -0.20 2 -0.45z m-118.15 -8 c5.95 -6 7 -10.25 3 -12.30 -2.75 -1.40 -4 -1 -7.10 2.30 -1.60 1.70 -3.35 4.10 -3.95 5.30 -0.95 1.90 -1 2.35 -0.40 3.75 0.70 1.70 3.10 3.40 4.85 3.40 0.70 0 2.10 -0.95 3.60 -2.45z m127.90 0.95 c2.15 -1.35 2.80 -3.05 1.90 -5.20 -1.15 -2.75 -2.95 -3.80 -6.60 -3.80 -3.15 0 -4 -0.45 -3.50 -1.75 0.20 -0.60 0.50 -0.65 1.55 -0.15 1.05 0.50 1.45 0.45 2.15 -0.25 1.10 -1.15 0.35 -2.45 -1.80 -3.05 -1.20 -0.35 -1.90 -0.20 -3.15 0.50 -2.20 1.30 -2.85 3.35 -1.70 5.50 1.15 2.10 3.45 3.20 6.90 3.20 2.05 0 2.80 0.20 3.05 0.80 0.65 1.70 -0.75 2.25 -2.25 0.90 -0.80 -0.75 -1 -0.70 -2 0.25 -1.10 1 -1.10 1.05 -0.15 2.10 0.90 1.05 2.40 1.85 3.45 1.90 0.30 0.05 1.25 -0.40 2.15 -0.95z m-57.40 -0.50 c14.20 -1.70 27.95 -7.20 39.25 -15.65 5.60 -4.15 13.20 -11.75 17.20 -17.10 4.10 -5.55 4.55 -6.25 7.35 -11.60 12.95 -24.95 12.15 -56.20 -2.10 -80 -8.15 -13.70 -20.20 -25.15 -33.55 -31.90 -23.80 -11.95 -49.85 -12.40 -73.90 -1.20 -16.45 7.65 -31.45 22.70 -39.40 39.50 -12.95 27.50 -9.75 60.55 8.30 84.70 3.55 4.80 10.30 11.75 15.10 15.65 12.10 9.85 26.45 15.80 43 17.75 3.40 0.45 14.80 0.30 18.75 -0.15z m64 -5.50 c1.35 -1.35 1.30 -1.60 -1 -3.70 l-2.05 -1.85 1.05 -1.30 c1.60 -2 1.35 -4.40 -0.70 -6.45 -2.45 -2.45 -4.15 -2.35 -7.35 0.65 l-2.50 2.35 5.65 5.65 c3.10 3.10 5.70 5.65 5.75 5.65 0.10 0 0.60 -0.45 1.15 -1z m-141 -4.45 c5 -4.90 5.20 -5.90 1.65 -9.60 l-2.40 -2.45 -5.65 5.60 -5.65 5.65 2.50 2.35 c3.65 3.55 4.60 3.40 9.55 -1.55z m148.60 -3.90 c0.50 -0.45 0.90 -1 0.90 -1.20 0 -0.20 -2.65 -2.65 -5.95 -5.40 l-5.95 -5 -1.15 1.25 c-1 1.05 -1.05 1.30 -0.40 1.90 1.50 1.50 11.05 9.30 11.35 9.30 0.15 0 0.70 -0.35 1.20 -0.85z m-159.35 -8.40 l5.35 -5.75 -1.10 -1.50 c-0.60 -0.80 -1.25 -1.50 -1.50 -1.50 -0.60 0 -13.65 5.95 -14.15 6.45 -0.20 0.20 0.05 0.90 0.55 1.60 0.90 1.05 1.10 1.10 2.40 0.50 1.25 -0.55 1.50 -0.50 2.05 0.25 0.90 1.20 0.80 1.50 -0.40 2.40 -1.05 0.70 -1.05 0.80 -0.25 2 0.45 0.75 1 1.30 1.25 1.30 0.25 0 2.85 -2.60 5.80 -5.75z m164.25 2.30 c0.25 -0.55 0.50 -1.20 0.50 -1.40 0 -0.25 -2.20 -2 -4.85 -3.90 -2.70 -1.90 -5 -3.50 -5.10 -3.60 -0.10 -0.05 0.20 -0.60 0.65 -1.10 0.95 -1.05 0.75 -1.75 -0.70 -2.55 -0.80 -0.40 -1.30 0.05 -3.55 3.05 l-2.65 3.55 1.25 0.95 c1.20 0.90 1.20 0.90 2.05 -0.10 0.90 -1.05 0.90 -1.05 5.75 2.45 2.70 1.95 5.15 3.55 5.50 3.55 0.35 0.05 0.85 -0.40 1.15 -0.90z m4 -5.80 c0.60 -1.10 0.55 -1.40 -0.45 -2.45 -0.95 -1 -1.05 -1.35 -0.50 -2.20 0.50 -0.80 0.80 -0.90 2 -0.40 1.20 0.45 1.55 0.35 2.20 -0.45 0.40 -0.55 0.75 -1.25 0.75 -1.55 0 -0.25 -3.40 -1.70 -7.50 -3.15 -7.30 -2.60 -7.55 -2.65 -8.25 -1.75 -1.55 2.05 -1.45 2.65 1.05 4.85 1.35 1.15 4 3.50 5.90 5.25 1.90 1.70 3.65 3.10 3.80 3.10 0.20 0 0.65 -0.55 1 -1.25z m-172.95 -4.85 c3 -1.70 5.45 -3.25 5.45 -3.45 0 -0.15 -0.30 -0.90 -0.65 -1.55 l-0.60 -1.25 -5.25 2.95 c-5.50 3 -7.20 3.55 -6.90 2.05 0.10 -0.70 8.15 -5.80 10.60 -6.75 0.20 -0.10 0 -0.90 -0.55 -1.75 l-0.90 -1.55 -5.50 3.15 c-7.10 4.10 -8.20 5.50 -6.70 8.40 2 3.85 3.90 3.80 11 -0.25z m178.45 -4.90 c0 -0.30 0.55 -1.65 1.25 -3.10 0.70 -1.40 1.25 -2.65 1.25 -2.75 0 -0.05 -0.70 -0.45 -1.50 -0.90 -1.45 -0.75 -1.55 -0.75 -2 0.50 -0.30 0.75 -0.50 1.55 -0.50 1.80 0 0.85 -1.20 0.45 -6.70 -2.05 -3 -1.40 -5.50 -2.50 -5.55 -2.50 -0.25 0 -1.40 3.05 -1.20 3.15 0.10 0.05 3.15 1.50 6.70 3.20 6.45 3.05 8.25 3.60 8.25 2.65z m-188.25 -2.70 c1.70 -0.75 1.70 -0.75 0.95 -2.25 -0.70 -1.40 -0.85 -1.45 -2.25 -0.95 -1.90 0.65 -2.85 -0.30 -1.65 -1.70 0.90 -0.95 6.75 -3.40 8.20 -3.40 1.35 0 1.35 2 0 2.35 -0.55 0.15 -1 0.30 -1 0.40 0 0.75 1.20 3.25 1.60 3.25 0.25 0 1.30 -0.80 2.25 -1.75 1.55 -1.55 1.75 -2 1.45 -3.40 -0.85 -4.35 -3.40 -5.20 -9.15 -3.10 -4.45 1.65 -7.15 3.95 -7.15 6.05 0.05 1.90 1.05 3.65 2.55 4.50 1.55 0.85 2.10 0.85 4.20 0z m-3.25 -39.90 c0 -1.85 0.05 -1.90 1.75 -1.90 1.60 0 1.75 -0.10 1.75 -1.50 0 -1.40 -0.15 -1.50 -1.70 -1.50 -1.65 0 -1.75 -0.10 -1.90 -1.85 -0.15 -1.75 -0.30 -1.90 -1.75 -2.05 -1.60 -0.15 -1.65 -0.15 -1.65 1.90 0 2.05 -0.05 2.05 -1.60 1.90 -1.60 -0.15 -1.65 -0.05 -1.65 1.60 0 1.65 0.05 1.75 1.65 1.60 1.50 -0.15 1.60 -0.10 1.60 1.55 0 2.05 0.10 2.20 2 2.20 1.40 0 1.50 -0.15 1.50 -1.95z m194.50 0.10 c0 -1.95 0.05 -2 1.80 -2 1.70 0 1.75 -0.05 1.60 -1.60 -0.15 -1.55 -0.25 -1.65 -1.75 -1.50 -1.60 0.15 -1.65 0.15 -1.65 -1.85 0 -1.70 -0.15 -2.05 -0.95 -2.05 -1.90 0 -2.55 0.55 -2.55 2.30 0 1.60 -0.10 1.70 -1.75 1.70 -1.60 0 -1.75 0.10 -1.75 1.50 0 1.40 0.15 1.50 1.75 1.50 1.65 0 1.75 0.10 1.75 1.70 0 1.40 0.20 1.75 1.15 1.95 2.30 0.45 2.35 0.40 2.35 -1.65z m-5.40 -34.15 l1.35 -0.60 -0.95 -2.15 c-0.85 -1.90 -1.10 -2.10 -2 -1.60 -0.55 0.30 -1 0.85 -1 1.25 0 0.80 -2.15 1.55 -2.95 1 -1.30 -0.75 -0.30 -1.70 3.50 -3.15 2.20 -0.90 4.45 -1.60 5 -1.60 1.30 0 1.25 1.80 -0.10 2.15 -0.80 0.20 -0.95 0.50 -0.70 1.45 0.60 1.90 1.15 2.20 2.65 1.40 2.80 -1.60 3.25 -4.45 1.15 -7.05 -0.80 -1 -1.40 -1.20 -3.40 -1.15 -2.90 0.05 -9.80 2.80 -10.90 4.35 -1.10 1.60 -0.90 3.70 0.50 5.10 1 1 1.70 1.25 3.85 1.25 1.45 -0.05 3.25 -0.30 4 -0.65z m-177.85 -3.75 c0.70 -2.35 0.75 -3.15 0.30 -4.05 -1.20 -2.20 -5.45 -3.90 -6.35 -2.50 -0.20 0.35 -0.70 0.05 -1.40 -0.80 -1.45 -1.85 -4.75 -2.30 -6.10 -0.85 -0.95 1 -3 6 -2.65 6.30 0.10 0.05 3.35 1.40 7.20 2.90 4.30 1.75 7.20 2.60 7.55 2.35 0.30 -0.25 0.95 -1.75 1.45 -3.35z m181.10 -10.20 c0.50 -0.40 0.45 -0.75 -0.20 -1.70 l-0.80 -1.20 -3.80 2 -3.80 2 3.35 -3.05 3.40 -3.05 -0.75 -1.45 c-0.45 -0.80 -1 -1.45 -1.25 -1.45 -0.40 0 -13.40 6.30 -13.90 6.75 -0.20 0.20 1.05 2.75 1.35 2.75 0.15 0 2 -0.90 4.05 -2.05 l3.75 -2 -3.45 3.15 -3.45 3.15 0.85 1.65 0.80 1.60 6.65 -3.30 c3.60 -1.85 6.85 -3.55 7.20 -3.80z m-176.90 1.25 l1.65 -3.35 -1.20 -0.90 c-1.10 -0.85 -1.20 -0.85 -2 0.15 -0.50 0.60 -0.90 1.35 -0.90 1.75 0 0.80 -1.85 0.95 -3 0.20 -0.60 -0.40 -0.60 -0.70 0.20 -2.30 0.85 -1.80 0.85 -1.95 0 -2.55 -1.35 -1 -2.10 -0.80 -2.95 0.85 -0.80 1.55 -1.50 1.80 -2.75 1 -0.65 -0.40 -0.60 -0.75 0.40 -2.50 l1.10 -1.95 -1.45 -0.80 -1.50 -0.75 -1.75 3.35 c-1 1.85 -1.80 3.50 -1.80 3.65 0 0.25 13.50 7.45 14 7.50 0.15 0 1.05 -1.50 1.95 -3.35z m4.05 1.20 c0 -0.50 -1.45 -1.80 -2.10 -1.85 -0.20 0 -0.50 0.45 -0.65 1.05 -0.40 1.30 1.15 2.65 2.10 1.85 0.35 -0.30 0.65 -0.75 0.65 -1.05z m-0.65 -7.20 c0.75 -1.15 0.90 -1 -4.85 -4.55 -1.50 -0.95 -2.40 -1.60 -2 -1.45 0.40 0.15 2.55 0.90 4.70 1.60 l3.95 1.40 0.90 -1.20 c0.50 -0.65 0.85 -1.40 0.80 -1.70 -0.20 -0.60 -11.90 -8.70 -12.60 -8.75 -0.75 0 -1.90 2.05 -1.40 2.50 0.20 0.25 1.85 1.35 3.65 2.50 1.80 1.15 2.90 2 2.50 1.85 -0.40 -0.10 -2.40 -0.75 -4.40 -1.40 l-3.60 -1.15 -0.90 1.20 c-0.45 0.70 -0.85 1.40 -0.85 1.60 0 0.55 12.40 8.90 12.95 8.75 0.25 -0.10 0.75 -0.60 1.15 -1.20z m161.35 -1.15 c4.50 -2.85 6 -4.70 5.60 -6.95 -0.15 -0.95 -0.85 -2.30 -1.50 -3 -1.95 -1.90 -4 -1.65 -8.35 1.05 -4.85 3.05 -5.70 4 -5.70 6.50 0 1.65 0.30 2.25 1.70 3.50 2.15 1.95 3.75 1.70 8.25 -1.10z m-180.95 -0.55 c-0.25 -1.10 -0.15 -1.45 0.40 -1.45 0.80 0 2 -1.20 1.60 -1.60 -0.15 -0.10 -0.95 -0.15 -1.80 0 -2.10 0.30 -2.85 2 -1.70 3.80 1.05 1.60 1.90 1.20 1.50 -0.75z m25.35 -6.30 c1.30 -1.20 1.15 -1.60 -1.45 -3.95 -2.10 -1.80 -2.30 -2.15 -1.70 -2.90 0.95 -1.10 1.10 -1.05 3.75 1.25 l2.35 2.10 0.85 -1.20 c0.45 -0.65 0.85 -1.35 0.85 -1.55 0 -0.20 -2.60 -2.60 -5.75 -5.30 l-5.75 -5 -1.25 1.20 -1.25 1.25 2.15 1.75 c2.20 1.85 2.55 2.70 1.45 3.65 -0.55 0.40 -1.15 0.15 -2.70 -1.20 -2.40 -2.05 -2.70 -2.10 -3.90 -0.75 -0.90 1 -0.90 1.05 0.05 2 1.30 1.35 10.90 9.45 11.15 9.50 0.15 0 0.65 -0.35 1.15 -0.85z m148.10 -1.60 c7.25 -5.60 7.70 -6.90 3.60 -11.75 l-1.70 -1.95 -2.30 1.85 c-1.25 1.05 -2.55 1.80 -2.90 1.65 -0.85 -0.30 -2.40 1.05 -2.10 1.80 0.10 0.35 -0.90 1.50 -2.30 2.60 -1.35 1.10 -2.45 2.15 -2.50 2.30 0 0.20 1.05 1.50 2.30 2.90 2.95 3.25 4.30 3.35 7.90 0.60z m15.80 -0.55 c0.80 -1.95 0 -3 -2.30 -3 -2 0 -2.25 0.85 -0.45 1.30 0.95 0.25 1.25 0.65 1.25 1.75 0 1.90 0.70 1.85 1.50 -0.05z m-25.25 -13.95 l3.85 -6.65 -1.40 -1.20 c-0.80 -0.65 -1.55 -1.15 -1.70 -1.15 -0.30 0 -1.70 1.05 -8.45 6.20 l-4.55 3.45 1.40 1.10 c1.15 0.95 1.45 1 2.15 0.40 0.95 -0.85 2.05 -0.90 2.85 -0.10 0.40 0.40 0.35 0.90 -0.25 1.95 -0.80 1.35 -0.80 1.45 0.40 2.40 0.65 0.55 1.35 0.85 1.55 0.65 0.20 -0.20 2.05 -3.35 4.15 -7.05z m-126.10 3.20 c0.75 -0.65 1.35 -1.30 1.35 -1.40 0 -0.15 -1.30 -2.55 -2.85 -5.40 -1.60 -2.85 -3.35 -6 -3.85 -7.05 l-0.95 -1.80 -1.45 1.05 c-0.75 0.55 -1.40 1.10 -1.40 1.15 0 0.10 1.35 2.30 3 5 l3.05 4.85 -4.30 -3.90 -4.30 -3.90 -1.35 1.35 -1.35 1.35 1.50 1.10 c0.80 0.60 3.65 2.85 6.25 4.95 2.60 2.10 4.85 3.85 5 3.85 0.15 0 0.85 -0.55 1.65 -1.20z m6.10 -4.75 c0.85 -0.95 0.80 -1.05 -0.55 -3.10 -4.25 -6.30 -7.35 -10.40 -7.85 -10.40 -0.70 0.05 -2.35 1.20 -2.35 1.70 0 0.20 0.75 1.35 1.65 2.55 0.85 1.20 2.85 4 4.35 6.20 1.50 2.20 3 4 3.30 4.05 0.30 0 0.95 -0.45 1.45 -1z m109.45 -0.85 c1 -1.05 2.75 -3.35 3.95 -5.15 1.40 -2.05 2.60 -3.30 3.30 -3.40 2.10 -0.30 3.25 -3.60 1.25 -3.60 -0.70 0 -0.90 0.60 -0.70 1.95 0.05 0.45 -0.55 0.15 -1.55 -0.65 -1.45 -1.20 -1.70 -1.30 -2.15 -0.60 -0.30 0.40 -1.55 2.25 -2.80 4.05 -3.40 5.05 -4 5.75 -4.80 5.75 -1.40 0 -0.65 -1.90 2.75 -6.80 l3.50 -5 -1.60 -0.95 c-1.45 -0.85 -1.55 -0.85 -2.05 -0.05 -0.30 0.50 -1.60 2.35 -2.95 4.20 -1.30 1.85 -2.85 4.30 -3.40 5.45 -0.95 1.95 -0.95 2.20 -0.20 3.60 0.85 1.65 2.85 3 4.60 3.05 0.70 0 1.85 -0.75 2.85 -1.85z m-100.90 0.10 c0.30 -0.70 -0.55 -2.25 -1.25 -2.25 -0.90 0.05 -1.50 0.90 -1.20 1.90 0.30 1.25 2.05 1.50 2.45 0.35z m-2.75 -3.05 c3.10 -1.85 3.35 -2.35 2.20 -3.90 -0.65 -0.90 -0.75 -0.90 -2.50 0.20 l-1.75 1.10 -1 -1.20 c-0.55 -0.60 -0.95 -1.25 -1 -1.40 0 -0.15 0.80 -0.70 1.75 -1.20 1 -0.55 1.65 -1.20 1.50 -1.50 -0.15 -0.30 -0.40 -0.95 -0.55 -1.40 -0.40 -1.15 -0.95 -1.15 -2.70 0.10 l-1.45 1 -0.80 -1.10 c-0.85 -1.25 -0.60 -1.65 2.05 -3.20 0.90 -0.50 0.90 -0.60 0.05 -1.90 l-0.90 -1.35 -1.60 1.05 c-0.90 0.60 -2.35 1.40 -3.25 1.90 -0.90 0.45 -1.55 1.05 -1.50 1.35 0.30 1.15 7.65 13.25 8.10 13.25 0.20 0 1.75 -0.80 3.35 -1.80z m94.90 -3.05 c0.85 -1.05 1.55 -2 1.55 -2.15 0 -0.15 -0.65 -0.55 -1.50 -0.90 -1.40 -0.65 -1.55 -0.60 -2.65 0.70 -1.25 1.40 -2.35 1.30 -2.35 -0.20 0 -0.50 0.95 -2.55 2.15 -4.60 2.35 -4.15 3.65 -4.90 3.50 -1.95 -0.10 1.50 0.10 1.90 1.25 2.40 1.10 0.55 1.40 0.50 1.95 -0.25 0.35 -0.50 0.65 -1.70 0.65 -2.70 0 -2.35 -1.70 -4 -4.45 -4.35 -1.80 -0.25 -2.20 -0.10 -3.45 1.25 -1.90 2 -5.10 8.55 -5.10 10.30 0 2.15 2.45 4.30 4.95 4.30 1.70 0 2.20 -0.30 3.50 -1.85z m-88.30 -0.65 c0.20 -0.20 -0.50 -2.15 -1.60 -4.30 l-2.05 -3.95 2.25 2.50 c1.25 1.40 2.65 3 3.05 3.60 0.75 1.05 0.85 1.05 2.50 0.30 0.95 -0.50 1.65 -1 1.60 -1.15 -1.65 -4.05 -6.75 -14 -7.15 -14 -0.30 0 -0.95 0.30 -1.50 0.65 -0.85 0.65 -0.80 0.90 1.10 4.55 2.25 4.25 2.05 4.25 -1.60 -0.10 l-2.45 -3 -1.55 0.75 c-0.80 0.45 -1.55 0.85 -1.65 0.90 -0.10 0.10 4.25 9.60 6 13.15 0.55 1.10 1.95 1.15 3.05 0.10z m74.35 -2.60 c0 -0.10 0.45 -3.50 1 -7.60 0.55 -4.05 1 -7.70 1 -8 0 -0.35 -0.85 -0.90 -1.85 -1.20 -2.05 -0.60 -2.20 -0.50 -3.95 2.85 -0.50 1 -2.10 3.75 -3.55 6.15 -2.45 4.10 -2.55 4.40 -1.65 4.90 1.45 0.80 2.40 0.60 3.05 -0.60 0.30 -0.65 0.65 -1.20 0.70 -1.30 0.05 -0.05 0.70 0.10 1.40 0.35 1.15 0.45 1.30 0.70 0.85 1.75 -0.30 0.85 -0.25 1.35 0.15 1.70 0.85 0.65 2.85 1.35 2.85 1z m-58.85 -3.20 c3.05 -0.95 4.10 -2.45 3.70 -5.35 -0.40 -2.70 -1.95 -7.45 -3.05 -9.05 -0.95 -1.50 -2.85 -1.70 -6.55 -0.70 -2.50 0.70 -2.70 1.25 -1.55 4.50 0.55 1.45 0.55 1.95 0.05 2.50 -0.80 0.85 -0.10 2.90 1 2.90 0.40 0 0.75 0.30 0.75 0.65 0 0.35 0.35 1.85 0.80 3.30 0.60 2.15 0.95 2.55 1.60 2.30 0.45 -0.20 1.90 -0.65 3.25 -1.05z m48.25 -1.55 c2.50 -2.15 4.10 -12.60 2.20 -14.30 -2.05 -1.85 -6.05 -1.70 -7.35 0.30 -0.85 1.30 -2.75 8.45 -2.75 10.45 0 0.70 0.60 2 1.30 2.85 1.05 1.30 1.65 1.55 3.45 1.55 1.30 0 2.55 -0.35 3.15 -0.85z m40.10 -0.65 c0.85 -0.85 0.90 -1.20 0.50 -2.05 -0.35 -0.65 -0.95 -0.95 -1.60 -0.85 -1.50 0.20 -1.70 1.30 -0.30 1.50 1.15 0.20 1.10 0.25 -0.20 0.80 -0.80 0.30 -1.40 0.80 -1.40 1.10 0 0.85 1.95 0.55 3 -0.50z m-80 -1.25 c0 -1.55 0.15 -1.75 1.25 -1.75 0.90 0 1.30 0.35 1.55 1.25 0.25 1.05 0.60 1.25 2 1.25 1.05 0 1.70 -0.25 1.70 -0.65 0 -0.30 -0.75 -2.50 -1.65 -4.85 -0.90 -2.35 -2.10 -5.55 -2.60 -7.15 l-1 -2.95 -1.90 0.25 c-1.05 0.15 -2 0.35 -2.10 0.45 -0.05 0.05 -0.30 3.70 -0.50 8.05 l-0.35 7.85 1.80 0 c1.75 0 1.80 -0.05 1.80 -1.75z m31.15 -6.60 c0.40 -4.35 0.75 -7.90 0.70 -7.95 -0.05 -0.05 -0.80 -0.25 -1.65 -0.40 l-1.60 -0.35 -0.35 3 c-0.30 2.80 -0.45 3.05 -1.60 3.05 -1.20 0 -1.25 -0.10 -1.05 -3.10 l0.15 -3.15 -1.60 -0.15 c-1.50 -0.15 -1.60 -0.10 -1.85 2 -0.15 1.20 -0.55 4.50 -0.90 7.40 l-0.65 5.25 -1.40 -3.75 c-0.75 -2.05 -1.35 -4.05 -1.35 -4.40 0 -0.30 0.55 -1.75 1.25 -3.20 1.65 -3.45 1.60 -4 -0.35 -3.80 -1.40 0.15 -1.65 0.45 -2.70 3.15 -1.25 3.25 -1.35 3.20 -1.20 -0.35 l0.05 -2.40 -1.75 0 -1.80 0 0 8 0 8 1.75 0 1.75 0 0 -2.45 c0 -1.40 0.20 -2.60 0.40 -2.75 0.25 -0.15 0.80 0.95 1.30 2.45 l0.85 2.75 3.50 0 c3.45 0 3.45 0 3.45 -1.35 0 -0.80 0.15 -2.20 0.30 -3.20 0.25 -1.60 0.45 -1.75 1.55 -1.55 1.20 0.20 1.20 0.30 0.90 3.40 l-0.35 3.10 1.40 0.25 c0.80 0.10 1.60 0.25 1.75 0.30 0.15 0 0.65 -3.50 1.10 -7.80z m-71.75 4.45 c0.15 -0.90 0.40 -1 1.90 -0.75 2.15 0.35 2.25 -0.50 0.15 -1.35 -2 -0.85 -3.15 -0.20 -3.35 2 -0.15 1.15 0 1.55 0.50 1.40 0.35 -0.15 0.70 -0.70 0.80 -1.30z"/>
  <path d="M122.50 207.20 c0 -1.40 0.15 -1.75 0.90 -1.60 0.55 0.10 0.90 0.70 1 1.80 0.15 1.35 0 1.60 -0.85 1.60 -0.85 0 -1.05 -0.30 -1.05 -1.80z"/>
  <path d="M133.85 210.60 c-0.10 -0.20 -0.20 -1.45 -0.25 -2.85 -0.05 -2.50 -0.05 -2.50 0.60 -1 1.25 2.80 1.35 3.60 0.60 3.90 -0.45 0.20 -0.85 0.15 -0.95 -0.05z"/>
  <path d="M165.80 196 c-2.50 -3.80 -2.90 -5.50 -1.30 -5.50 1.45 0 6.20 7.40 5.40 8.35 -1 1.20 -1.75 0.65 -4.10 -2.85z"/>
  <path d="M46.75 193 c-0.45 -0.70 0.90 -2.95 3.60 -5.95 2.40 -2.70 3.65 -3.05 3.65 -1.10 0 1.10 -5.30 7.55 -6.25 7.55 -0.35 0 -0.85 -0.20 -1 -0.50z"/>
  <path d="M179.60 180.20 c-1.20 -1.30 -1.10 -2.20 0.25 -2.20 1.25 0 2.55 1.45 2.30 2.55 -0.35 1.25 -1.15 1.15 -2.55 -0.35z"/>
  <path d="M38.60 185.05 c-0.50 -0.30 0.25 -1.30 2.95 -3.95 2 -1.95 3.80 -3.45 4.05 -3.30 1 0.65 0.15 2.25 -2.55 4.85 -3.10 2.95 -3.35 3.10 -4.45 2.40z"/>
  <path d="M30.50 170.85 c0 -0.35 1.30 -1.25 2.90 -2 l2.85 -1.40 -2.25 2 c-2.30 2.05 -3.50 2.55 -3.50 1.40z"/>
  <path d="M196.50 162.15 c-1.25 -0.95 -2.35 -1.85 -2.50 -2 -0.15 -0.10 1 0.25 2.50 0.85 3.25 1.30 3.75 1.65 2.90 2.35 -0.50 0.40 -1.25 0.10 -2.90 -1.20z"/>
  <path d="M22.90 77.90 c-1.60 -0.55 -1.75 -1 -0.65 -1.90 1.05 -0.90 3.25 0.10 3.25 1.50 0 1.10 -0.55 1.20 -2.60 0.40z"/>
  <path d="M16.90 75.30 c-1.65 -0.70 -1.15 -1.95 0.65 -1.70 0.80 0.10 1.25 0.55 1.35 1.30 0.20 1.25 -0.05 1.30 -2 0.40z"/>
  <path d="M190.65 61.25 c-0.20 -0.65 0.10 -1.25 1 -2 2.55 -2 6.80 -4.35 7.30 -4 1.25 0.75 0.35 2.10 -2.75 4.20 -3.95 2.60 -5.05 3 -5.55 1.80z"/>
  <path d="M184.25 52.45 c-0.60 -0.90 1.75 -2.95 2.95 -2.65 0.70 0.15 1.40 -0.10 2 -0.75 0.55 -0.60 0.70 -1.05 0.40 -1.05 -1 0 -0.65 -0.85 0.70 -1.75 1.10 -0.70 1.40 -0.75 1.75 -0.20 0.80 1.30 0.45 1.90 -2.60 4.45 -2.95 2.45 -4.55 3.05 -5.20 1.95z"/>
  <path d="M175.70 39.40 c-0.35 -0.50 3.25 -4.10 3.70 -3.65 0.25 0.25 -2.50 4.25 -2.95 4.25 -0.20 0 -0.55 -0.25 -0.75 -0.60z"/>
  <path d="M143.70 20.95 c-0.30 -0.50 1.75 -5.65 2.15 -5.25 0.30 0.30 -0.90 5.30 -1.35 5.55 -0.25 0.15 -0.60 0 -0.80 -0.30z"/>
  <path d="M86 21.20 c-0.65 -1.65 -0.65 -2.70 0 -2.70 0.30 0 0.50 -0.55 0.50 -1.25 0 -0.90 -0.25 -1.25 -0.95 -1.25 -0.55 0 -1.05 -0.45 -1.25 -1.10 -0.50 -2 -0.35 -2.50 0.85 -2.30 0.85 0.10 1.30 0.80 2.20 3.40 1.30 3.95 1.40 5.80 0.35 6.20 -1.15 0.45 -1.20 0.40 -1.70 -1z"/>
  <path d="M132.25 21 c-0.35 -0.55 0.05 -3.20 1.10 -6.90 0.75 -2.65 1.90 -3.80 2.65 -2.65 0.40 0.70 -0.55 6.35 -1.45 8.70 -0.50 1.35 -1.70 1.80 -2.30 0.85z"/>
  <path d="M96 14.75 c0 -2.50 0.70 -3.05 1.15 -0.85 0.15 0.75 0.45 1.75 0.60 2.25 0.30 0.65 0.10 0.85 -0.70 0.85 -0.90 0 -1.05 -0.30 -1.05 -2.25z"/>
 </g>
 <g fill="#ef2d2f">
  <path d="M87 163.25 c0 -13.60 -0.15 -16.75 -0.65 -16.75 -1.05 0 -5.35 -3 -7.70 -5.35 l-2.10 -2.10 -14.80 -0.15 -14.75 -0.15 0 -26.40 0 -26.35 2.25 0.25 c1.25 0.15 2.25 0.15 2.25 -0.05 0 -0.20 -0.80 -1.05 -1.80 -1.90 l-1.85 -1.60 4.45 -1.35 c2.95 -0.90 5.55 -1.35 7.70 -1.35 5.35 0 12.55 2.05 17.85 5 1.45 0.85 2.75 1.25 2.90 1 0.45 -0.70 -1.20 -8 -2.35 -10.25 -0.55 -1.10 -2.70 -3.75 -4.80 -5.85 l-3.75 -3.85 2.20 0.25 c7.50 0.85 13.10 1.75 13.95 2.20 1 0.55 1 0.35 1 -11.50 l0 -12 25.50 0 25.50 0 0 11.80 0 11.80 1.15 -0.30 c1.20 -0.40 9.10 -1.55 13 -1.95 l2.40 -0.25 -4.20 4.35 c-3.80 3.85 -4.35 4.65 -5.30 7.80 -1.45 4.55 -1.85 7.75 -1.10 7.75 0.30 0 2.10 -0.75 3.95 -1.70 8.45 -4.25 17.25 -5.25 24.75 -2.80 2.10 0.70 3.85 1.35 3.85 1.50 0 0.15 -0.80 0.75 -1.75 1.40 -0.95 0.60 -1.75 1.30 -1.75 1.50 0 0.20 1.05 0.35 2.40 0.35 l2.35 0.05 0 26.10 0 26.15 -14.70 -0.05 -14.70 -0.05 -3.05 2.95 c-1.70 1.65 -4 3.45 -5.20 4.05 l-2.10 1.05 0 16.75 0 16.75 -25.50 0 -25.50 0 0 -16.75z m12.60 -18.30 c3.70 -0.80 7.25 -2.45 10.10 -4.80 l2.45 -2 3.15 2.40 c13.25 10 30.10 3.75 33.90 -12.60 0.40 -1.65 0.55 -2.95 0.40 -2.95 -0.20 0 -1 0.95 -1.85 2.05 -2.30 3.15 -7.60 7.45 -11.50 9.25 -4.60 2.20 -9.55 2.90 -14.90 2.20 -3.50 -0.50 -6.35 -1.20 -6.35 -1.60 0 -0.10 1.85 -0.10 4.10 0 4.60 0.20 12.30 -1.10 16.90 -2.85 3.55 -1.35 8.15 -5.05 10.55 -8.55 2.20 -3.15 3.40 -5.90 7 -16 4.30 -11.95 9.10 -19.90 14.35 -23.75 1.15 -0.80 2.10 -1.65 2.10 -1.85 0 -0.65 -4.60 -1.05 -8.15 -0.70 -1.90 0.15 -5.20 0.90 -7.30 1.60 -4.25 1.45 -11.55 5.50 -11.55 6.35 0.10 5.50 -0.55 18.85 -1 21.10 -0.75 4.15 -2.85 10.35 -4.35 13 -2.85 5.15 -11.70 10.30 -17.65 10.25 -1.65 -0.05 -1.55 -0.10 1.20 -1.10 6.80 -2.40 12.80 -7.45 15.40 -12.95 2.25 -4.80 2.80 -8.35 3.10 -20.95 0.40 -16.60 1.60 -23.40 5.05 -28.55 0.70 -1.10 1.10 -1.95 0.90 -1.95 -0.25 0 -1.95 0.35 -3.85 0.75 -6.25 1.30 -12.45 5.55 -15.85 10.80 -1.75 2.70 -1.80 3.60 -0.40 6.80 1.95 4.50 3.95 12.90 4.55 18.70 0.50 5 0.45 6.45 -0.25 10.50 -1 5.55 -3.40 10.90 -6.10 13.60 -2.35 2.35 -2.95 2.05 -0.80 -0.40 7.70 -8.80 7.15 -26.25 -1.70 -48.75 -1.80 -4.70 -7.05 -15.35 -8.40 -17.20 -0.70 -0.95 -0.80 -0.90 -1.95 1 -1.05 1.60 -4.45 8.50 -6.95 13.95 -2.25 4.95 -5.25 14.45 -6.55 20.75 -1.35 6.40 -1.55 17.30 -0.45 21.25 1 3.45 2.85 7.10 5 9.75 l1.80 2.25 -1.55 -1.10 c-2.90 -2.05 -4.90 -5.25 -6.80 -10.90 -1 -3.05 -1.15 -4.40 -1.10 -10.75 0.05 -8.10 1.20 -14.15 4.25 -22.05 l1.60 -4.10 -1.20 -2.25 c-1.65 -3.15 -6.25 -7.75 -9.20 -9.20 -3.85 -1.95 -11.25 -4 -11.25 -3.15 0 0.20 0.60 1.10 1.30 2 3.15 4.15 4.50 12.40 4.90 30.25 0.20 6.95 0.50 11.20 1.05 13.25 2.35 9.10 8.10 15.25 17.25 18.60 l3.25 1.20 -3.25 -0.30 c-6.25 -0.55 -14.15 -5.65 -16.75 -10.75 -3.15 -6.25 -4.75 -14.95 -4.75 -26.10 l0 -7.40 -2.10 -1.55 c-5.25 -3.85 -12.70 -6.20 -19.50 -6.20 -2.65 0 -4.95 0.15 -5.15 0.35 -0.20 0.20 1.05 1.65 2.75 3.25 5.65 5.20 9.10 10.95 12.70 20.90 5.30 14.60 7.15 18.15 11.50 22.15 4.70 4.30 12.55 6.75 21.90 6.80 3.20 0.05 5.70 0.20 5.60 0.40 -0.45 0.70 -6.05 1.55 -10.20 1.55 -8.40 0 -14.65 -3.05 -21.45 -10.50 -3.10 -3.35 -3.10 -3.40 -2.80 -1.65 1.80 9.80 8.40 17.05 16.90 18.45 3.75 0.60 4.95 0.60 7.95 0z"/>
 </g>
</svg>